<svg width="200" height="200" viewBox="0 0 200 200" xmlns="http://www.w3.org/2000/svg">
  <!-- QR Code Background -->
  <rect width="200" height="200" fill="white"/>
  
  <!-- QR Code Pattern -->
  <g fill="black">
    <!-- Corner squares -->
    <rect x="10" y="10" width="50" height="50"/>
    <rect x="20" y="20" width="30" height="30" fill="white"/>
    <rect x="30" y="30" width="10" height="10"/>
    
    <rect x="140" y="10" width="50" height="50"/>
    <rect x="150" y="20" width="30" height="30" fill="white"/>
    <rect x="160" y="30" width="10" height="10"/>
    
    <rect x="10" y="140" width="50" height="50"/>
    <rect x="20" y="150" width="30" height="30" fill="white"/>
    <rect x="30" y="160" width="10" height="10"/>
    
    <!-- Data pattern (simplified) -->
    <rect x="70" y="10" width="10" height="10"/>
    <rect x="90" y="10" width="10" height="10"/>
    <rect x="110" y="10" width="10" height="10"/>
    <rect x="130" y="10" width="10" height="10"/>
    
    <rect x="10" y="70" width="10" height="10"/>
    <rect x="30" y="70" width="10" height="10"/>
    <rect x="50" y="70" width="10" height="10"/>
    <rect x="70" y="70" width="10" height="10"/>
    <rect x="90" y="70" width="10" height="10"/>
    <rect x="110" y="70" width="10" height="10"/>
    <rect x="130" y="70" width="10" height="10"/>
    <rect x="150" y="70" width="10" height="10"/>
    <rect x="170" y="70" width="10" height="10"/>
    <rect x="190" y="70" width="10" height="10"/>
    
    <!-- More pattern elements -->
    <rect x="70" y="30" width="10" height="10"/>
    <rect x="90" y="30" width="10" height="10"/>
    <rect x="110" y="30" width="10" height="10"/>
    <rect x="130" y="30" width="10" height="10"/>
    
    <rect x="70" y="50" width="10" height="10"/>
    <rect x="90" y="50" width="10" height="10"/>
    <rect x="110" y="50" width="10" height="10"/>
    <rect x="130" y="50" width="10" height="10"/>
    
    <rect x="70" y="90" width="10" height="10"/>
    <rect x="90" y="90" width="10" height="10"/>
    <rect x="110" y="90" width="10" height="10"/>
    <rect x="130" y="90" width="10" height="10"/>
    <rect x="150" y="90" width="10" height="10"/>
    <rect x="170" y="90" width="10" height="10"/>
    <rect x="190" y="90" width="10" height="10"/>
    
    <rect x="70" y="110" width="10" height="10"/>
    <rect x="90" y="110" width="10" height="10"/>
    <rect x="110" y="110" width="10" height="10"/>
    <rect x="130" y="110" width="10" height="10"/>
    <rect x="150" y="110" width="10" height="10"/>
    <rect x="170" y="110" width="10" height="10"/>
    <rect x="190" y="110" width="10" height="10"/>
    
    <rect x="70" y="130" width="10" height="10"/>
    <rect x="90" y="130" width="10" height="10"/>
    <rect x="110" y="130" width="10" height="10"/>
    <rect x="130" y="130" width="10" height="10"/>
    <rect x="150" y="130" width="10" height="10"/>
    <rect x="170" y="130" width="10" height="10"/>
    <rect x="190" y="130" width="10" height="10"/>
    
    <rect x="70" y="150" width="10" height="10"/>
    <rect x="90" y="150" width="10" height="10"/>
    <rect x="110" y="150" width="10" height="10"/>
    <rect x="130" y="150" width="10" height="10"/>
    <rect x="150" y="150" width="10" height="10"/>
    <rect x="170" y="150" width="10" height="10"/>
    <rect x="190" y="150" width="10" height="10"/>
    
    <rect x="70" y="170" width="10" height="10"/>
    <rect x="90" y="170" width="10" height="10"/>
    <rect x="110" y="170" width="10" height="10"/>
    <rect x="130" y="170" width="10" height="10"/>
    <rect x="150" y="170" width="10" height="10"/>
    <rect x="170" y="170" width="10" height="10"/>
    <rect x="190" y="170" width="10" height="10"/>
    
    <rect x="70" y="190" width="10" height="10"/>
    <rect x="90" y="190" width="10" height="10"/>
    <rect x="110" y="190" width="10" height="10"/>
    <rect x="130" y="190" width="10" height="10"/>
    <rect x="150" y="190" width="10" height="10"/>
    <rect x="170" y="190" width="10" height="10"/>
    <rect x="190" y="190" width="10" height="10"/>
  </g>
</svg>
